<svg width="30" height="30" viewBox="0 0 30 30" fill="none" xmlns="http://www.w3.org/2000/svg">
<rect x="0.5" y="0.5" width="29" height="29" stroke="black"/>
<g clip-path="url(#clip0_984_571)">
<path d="M25.362 7.51586C25.537 7.31972 25.7765 7.2065 26.0283 7.2009C26.2801 7.1953 26.5237 7.29777 26.706 7.48596C26.7962 7.57908 26.8685 7.69058 26.9188 7.81407C26.9691 7.93755 26.9963 8.07059 26.999 8.20553C27.0017 8.34046 26.9797 8.47464 26.9344 8.60036C26.889 8.72607 26.8212 8.84084 26.7348 8.93806L13.5444 23.7841C13.4562 23.8832 13.3506 23.9623 13.2338 24.0166C13.117 24.0709 12.9913 24.0994 12.8642 24.1003C12.7371 24.1013 12.6111 24.0747 12.4936 24.0222C12.3761 23.9697 12.2695 23.8923 12.18 23.7945L3.27361 14.0406C3.18596 13.9447 3.11665 13.831 3.06968 13.706C3.0227 13.5811 2.99898 13.4473 2.99987 13.3124C3.00076 13.1774 3.02625 13.044 3.07488 12.9198C3.1235 12.7956 3.1943 12.683 3.28321 12.5885C3.46327 12.3969 3.70604 12.2905 3.95839 12.2924C4.21073 12.2944 4.45208 12.4046 4.62961 12.5989L12.8484 21.6001L25.362 7.51586Z" fill="black"/>
</g>
<defs>
<clipPath id="clip0_984_571">
<rect width="24" height="26" fill="white" transform="translate(3 2)"/>
</clipPath>
</defs>
</svg>
