<svg width="46" height="46" viewBox="0 0 46 46" fill="none" xmlns="http://www.w3.org/2000/svg">
<g id="&#236;&#151;&#172;&#236;&#132;&#177; &#236;&#160;&#132;&#236;&#154;&#169;">
<g id="Group">
<path id="Vector" d="M23.0657 15.2852C23.8797 15.2852 24.6857 15.1249 25.4378 14.8134C26.1898 14.5018 26.8731 14.0453 27.4487 13.4697C28.0243 12.8941 28.4809 12.2108 28.7924 11.4587C29.1039 10.7067 29.2642 9.90068 29.2642 9.08668C29.2642 8.27269 29.1039 7.46666 28.7924 6.71462C28.4809 5.96258 28.0243 5.27927 27.4487 4.70368C26.8731 4.1281 26.1898 3.67152 25.4378 3.36002C24.6857 3.04851 23.8797 2.88818 23.0657 2.88818C21.4218 2.88818 19.8452 3.54124 18.6827 4.70368C17.5203 5.86613 16.8672 7.44274 16.8672 9.08668C16.8672 10.7306 17.5203 12.3072 18.6827 13.4697C19.8452 14.6321 21.4218 15.2852 23.0657 15.2852Z" stroke="#C2C2C2" stroke-width="3.8" stroke-linecap="round" stroke-linejoin="round"/>
<path id="Vector_2" d="M28.727 35.3214L27.3142 42.3529H18.814L17.3979 35.3214H12.834C12.4733 35.3108 12.1295 35.1663 11.8695 34.9161C11.6096 34.6658 11.4521 34.3278 11.4277 33.9677C11.4203 33.8686 11.4281 33.7688 11.4507 33.672C13.0443 26.1872 13.5076 15.2852 23.0624 15.2852C32.6173 15.2852 33.0839 26.1872 34.6742 33.672C34.6978 33.7687 34.7067 33.8684 34.7004 33.9677C34.676 34.3283 34.5181 34.6668 34.2574 34.9172C33.9968 35.1675 33.6521 35.3116 33.2909 35.3214H28.727Z" stroke="#C2C2C2" stroke-width="3.8" stroke-linecap="round" stroke-linejoin="round"/>
</g>
</g>
</svg>
