<svg width="34" height="34" viewBox="0 0 34 34" fill="none" xmlns="http://www.w3.org/2000/svg">
<g id="filter button">
<path id="Vector" d="M30 16.9993H12.6362M6.50724 16.9993H4M6.50724 16.9993C6.50724 16.2098 6.83003 15.4526 7.4046 14.8943C7.97918 14.336 8.75846 14.0224 9.57103 14.0224C10.3836 14.0224 11.1629 14.336 11.7374 14.8943C12.312 15.4526 12.6348 16.2098 12.6348 16.9993C12.6348 17.7889 12.312 18.5461 11.7374 19.1043C11.1629 19.6626 10.3836 19.9763 9.57103 19.9763C8.75846 19.9763 7.97918 19.6626 7.4046 19.1043C6.83003 18.5461 6.50724 17.7889 6.50724 16.9993ZM30 26.0217H21.9217M21.9217 26.0217C21.9217 26.8114 21.5982 27.5695 21.0235 28.1279C20.4488 28.6863 19.6693 29 18.8565 29C18.044 29 17.2647 28.685 16.6901 28.1267C16.1155 27.5684 15.7928 26.8112 15.7928 26.0217M21.9217 26.0217C21.9217 25.232 21.5982 24.4753 21.0235 23.9169C20.4488 23.3584 19.6693 23.0447 18.8565 23.0447C18.044 23.0447 17.2647 23.3584 16.6901 23.9167C16.1155 24.4749 15.7928 25.2321 15.7928 26.0217M15.7928 26.0217H4M30 7.97696H25.6362M19.5072 7.97696H4M19.5072 7.97696C19.5072 7.18742 19.83 6.43022 20.4046 5.87193C20.9792 5.31364 21.7585 5 22.571 5C22.9734 5 23.3718 5.077 23.7435 5.22661C24.1152 5.37621 24.453 5.59549 24.7374 5.87193C25.0219 6.14837 25.2476 6.47654 25.4016 6.83772C25.5556 7.1989 25.6348 7.58602 25.6348 7.97696C25.6348 8.3679 25.5556 8.75501 25.4016 9.11619C25.2476 9.47737 25.0219 9.80555 24.7374 10.082C24.453 10.3584 24.1152 10.5777 23.7435 10.7273C23.3718 10.8769 22.9734 10.9539 22.571 10.9539C21.7585 10.9539 20.9792 10.6403 20.4046 10.082C19.83 9.52369 19.5072 8.76649 19.5072 7.97696Z" stroke="black" stroke-width="1.5" stroke-miterlimit="10" stroke-linecap="round"/>
</g>
</svg>
