<svg width="45" height="40" viewBox="0 0 45 40" fill="none" xmlns="http://www.w3.org/2000/svg">
<g id="&#236;&#161;&#176;&#236;&#139;&#157;">
<mask id="path-1-outside-1_858_7206" maskUnits="userSpaceOnUse" x="0" y="0" width="45" height="40" fill="black">
<rect fill="white" width="45" height="40"/>
<path d="M30.2686 11.0781C29.9046 11.0781 29.5897 10.9451 29.3237 10.6792C29.0578 10.4132 28.9248 10.0983 28.9248 9.73438C28.9248 9.02051 29.0578 8.33464 29.3237 7.67676C29.5897 7.01888 29.9816 6.43799 30.4995 5.93408L32.1582 4.25439C32.6901 3.72249 32.9561 3.08561 32.9561 2.34375C32.9561 1.97982 33.089 1.66488 33.355 1.39893C33.6209 1.13298 33.9359 1 34.2998 1C34.6637 1 34.9787 1.13298 35.2446 1.39893C35.5106 1.66488 35.6436 1.97982 35.6436 2.34375C35.6436 3.05762 35.5106 3.74349 35.2446 4.40137C34.9787 5.05924 34.5868 5.64014 34.0688 6.14404L32.4102 7.82373C31.8783 8.35563 31.6123 8.99251 31.6123 9.73438C31.6123 10.0983 31.4793 10.4132 31.2134 10.6792C30.9474 10.9451 30.6325 11.0781 30.2686 11.0781ZM22.2061 11.0781C21.8421 11.0781 21.5272 10.9451 21.2612 10.6792C20.9953 10.4132 20.8623 10.0983 20.8623 9.73438C20.8623 9.02051 20.9953 8.33464 21.2612 7.67676C21.5272 7.01888 21.9191 6.43799 22.437 5.93408L24.0957 4.25439C24.6276 3.72249 24.8936 3.08561 24.8936 2.34375C24.8936 1.97982 25.0265 1.66488 25.2925 1.39893C25.5584 1.13298 25.8734 1 26.2373 1C26.6012 1 26.9162 1.13298 27.1821 1.39893C27.4481 1.66488 27.5811 1.97982 27.5811 2.34375C27.5811 3.05762 27.4481 3.74349 27.1821 4.40137C26.9162 5.05924 26.5243 5.64014 26.0063 6.14404L24.3477 7.82373C23.8158 8.35563 23.5498 8.99251 23.5498 9.73438C23.5498 10.0983 23.4168 10.4132 23.1509 10.6792C22.8849 10.9451 22.57 11.0781 22.2061 11.0781ZM39.6748 14.7734C40.2347 14.7734 40.7596 14.8784 41.2495 15.0884C41.7394 15.2983 42.1663 15.5853 42.5303 15.9492C42.8942 16.3132 43.1812 16.7401 43.3911 17.23C43.6011 17.7199 43.7061 18.2448 43.7061 18.8047V26.8672C43.7061 27.4271 43.6011 27.952 43.3911 28.4419C43.1812 28.9318 42.8942 29.3587 42.5303 29.7227C42.1663 30.0866 41.7394 30.3735 41.2495 30.5835C40.7596 30.7935 40.2347 30.8984 39.6748 30.8984H38.478C38.45 30.9964 38.429 31.0874 38.415 31.1714C38.401 31.2554 38.373 31.3394 38.3311 31.4233V32.2422C38.3311 33.166 38.1561 34.0339 37.8062 34.8457C37.4562 35.6576 36.9733 36.3714 36.3574 36.9873C35.7415 37.6032 35.0277 38.0861 34.2158 38.436C33.404 38.786 32.5361 38.9609 31.6123 38.9609H23.5498C22.458 38.9609 21.4502 38.716 20.5264 38.2261C19.6025 37.7362 18.8327 37.0853 18.2168 36.2734H7.71875C6.79492 36.2734 5.92708 36.0985 5.11523 35.7485C4.30339 35.3986 3.58952 34.9227 2.97363 34.3208C2.35775 33.7189 1.87484 33.005 1.5249 32.1792C1.17497 31.3534 1 30.4785 1 29.5547V28.2109H6.375C6.375 27.1051 6.58496 26.0623 7.00488 25.0825C7.4248 24.1027 8.0057 23.2489 8.74756 22.521C9.48942 21.7931 10.3433 21.2122 11.3091 20.7783C12.2749 20.3444 13.3177 20.1344 14.4375 20.1484C14.8574 20.1484 15.2633 20.1834 15.6553 20.2534C16.0472 20.3234 16.4391 20.4214 16.8311 20.5474V12.0859H38.3311V14.7734H39.6748ZM14.4375 22.8359C13.6956 22.8359 13.0028 22.9759 12.3589 23.2559C11.715 23.5358 11.1411 23.9207 10.6372 24.4106C10.1333 24.9006 9.74837 25.4674 9.48242 26.1113C9.21647 26.7552 9.0765 27.4551 9.0625 28.2109H16.8311V23.4238C16.4671 23.2419 16.0892 23.1019 15.6973 23.0039C15.3053 22.9059 14.8854 22.8499 14.4375 22.8359ZM7.71875 33.5859H16.978C16.88 33.18 16.8311 32.7321 16.8311 32.2422V30.8984H3.91846C4.05843 31.2904 4.25439 31.6473 4.50635 31.9692C4.7583 32.2912 5.04525 32.5781 5.36719 32.8301C5.68913 33.082 6.05306 33.264 6.45898 33.376C6.86491 33.488 7.28483 33.5579 7.71875 33.5859ZM17.4399 34.9927V35.0137L17.4609 35.0557V35.0347L17.4399 34.9927ZM35.6436 32.2422V14.7734H19.5186V32.2422C19.5186 32.8021 19.6235 33.327 19.8335 33.8169C20.0435 34.3068 20.3304 34.7337 20.6943 35.0977C21.0583 35.4616 21.4852 35.7485 21.9751 35.9585C22.465 36.1685 22.9899 36.2734 23.5498 36.2734H31.6123C32.1722 36.2734 32.6971 36.1685 33.187 35.9585C33.6769 35.7485 34.1038 35.4616 34.4678 35.0977C34.8317 34.7337 35.1187 34.3068 35.3286 33.8169C35.5386 33.327 35.6436 32.8021 35.6436 32.2422ZM41.0186 26.8672V18.8047C41.0186 18.4408 40.8856 18.1258 40.6196 17.8599C40.3537 17.5939 40.0387 17.4609 39.6748 17.4609H38.3311V28.2109H39.6748C40.0387 28.2109 40.3537 28.078 40.6196 27.812C40.8856 27.5461 41.0186 27.2311 41.0186 26.8672Z"/>
</mask>
<path d="M30.2686 11.0781C29.9046 11.0781 29.5897 10.9451 29.3237 10.6792C29.0578 10.4132 28.9248 10.0983 28.9248 9.73438C28.9248 9.02051 29.0578 8.33464 29.3237 7.67676C29.5897 7.01888 29.9816 6.43799 30.4995 5.93408L32.1582 4.25439C32.6901 3.72249 32.9561 3.08561 32.9561 2.34375C32.9561 1.97982 33.089 1.66488 33.355 1.39893C33.6209 1.13298 33.9359 1 34.2998 1C34.6637 1 34.9787 1.13298 35.2446 1.39893C35.5106 1.66488 35.6436 1.97982 35.6436 2.34375C35.6436 3.05762 35.5106 3.74349 35.2446 4.40137C34.9787 5.05924 34.5868 5.64014 34.0688 6.14404L32.4102 7.82373C31.8783 8.35563 31.6123 8.99251 31.6123 9.73438C31.6123 10.0983 31.4793 10.4132 31.2134 10.6792C30.9474 10.9451 30.6325 11.0781 30.2686 11.0781ZM22.2061 11.0781C21.8421 11.0781 21.5272 10.9451 21.2612 10.6792C20.9953 10.4132 20.8623 10.0983 20.8623 9.73438C20.8623 9.02051 20.9953 8.33464 21.2612 7.67676C21.5272 7.01888 21.9191 6.43799 22.437 5.93408L24.0957 4.25439C24.6276 3.72249 24.8936 3.08561 24.8936 2.34375C24.8936 1.97982 25.0265 1.66488 25.2925 1.39893C25.5584 1.13298 25.8734 1 26.2373 1C26.6012 1 26.9162 1.13298 27.1821 1.39893C27.4481 1.66488 27.5811 1.97982 27.5811 2.34375C27.5811 3.05762 27.4481 3.74349 27.1821 4.40137C26.9162 5.05924 26.5243 5.64014 26.0063 6.14404L24.3477 7.82373C23.8158 8.35563 23.5498 8.99251 23.5498 9.73438C23.5498 10.0983 23.4168 10.4132 23.1509 10.6792C22.8849 10.9451 22.57 11.0781 22.2061 11.0781ZM39.6748 14.7734C40.2347 14.7734 40.7596 14.8784 41.2495 15.0884C41.7394 15.2983 42.1663 15.5853 42.5303 15.9492C42.8942 16.3132 43.1812 16.7401 43.3911 17.23C43.6011 17.7199 43.7061 18.2448 43.7061 18.8047V26.8672C43.7061 27.4271 43.6011 27.952 43.3911 28.4419C43.1812 28.9318 42.8942 29.3587 42.5303 29.7227C42.1663 30.0866 41.7394 30.3735 41.2495 30.5835C40.7596 30.7935 40.2347 30.8984 39.6748 30.8984H38.478C38.45 30.9964 38.429 31.0874 38.415 31.1714C38.401 31.2554 38.373 31.3394 38.3311 31.4233V32.2422C38.3311 33.166 38.1561 34.0339 37.8062 34.8457C37.4562 35.6576 36.9733 36.3714 36.3574 36.9873C35.7415 37.6032 35.0277 38.0861 34.2158 38.436C33.404 38.786 32.5361 38.9609 31.6123 38.9609H23.5498C22.458 38.9609 21.4502 38.716 20.5264 38.2261C19.6025 37.7362 18.8327 37.0853 18.2168 36.2734H7.71875C6.79492 36.2734 5.92708 36.0985 5.11523 35.7485C4.30339 35.3986 3.58952 34.9227 2.97363 34.3208C2.35775 33.7189 1.87484 33.005 1.5249 32.1792C1.17497 31.3534 1 30.4785 1 29.5547V28.2109H6.375C6.375 27.1051 6.58496 26.0623 7.00488 25.0825C7.4248 24.1027 8.0057 23.2489 8.74756 22.521C9.48942 21.7931 10.3433 21.2122 11.3091 20.7783C12.2749 20.3444 13.3177 20.1344 14.4375 20.1484C14.8574 20.1484 15.2633 20.1834 15.6553 20.2534C16.0472 20.3234 16.4391 20.4214 16.8311 20.5474V12.0859H38.3311V14.7734H39.6748ZM14.4375 22.8359C13.6956 22.8359 13.0028 22.9759 12.3589 23.2559C11.715 23.5358 11.1411 23.9207 10.6372 24.4106C10.1333 24.9006 9.74837 25.4674 9.48242 26.1113C9.21647 26.7552 9.0765 27.4551 9.0625 28.2109H16.8311V23.4238C16.4671 23.2419 16.0892 23.1019 15.6973 23.0039C15.3053 22.9059 14.8854 22.8499 14.4375 22.8359ZM7.71875 33.5859H16.978C16.88 33.18 16.8311 32.7321 16.8311 32.2422V30.8984H3.91846C4.05843 31.2904 4.25439 31.6473 4.50635 31.9692C4.7583 32.2912 5.04525 32.5781 5.36719 32.8301C5.68913 33.082 6.05306 33.264 6.45898 33.376C6.86491 33.488 7.28483 33.5579 7.71875 33.5859ZM17.4399 34.9927V35.0137L17.4609 35.0557V35.0347L17.4399 34.9927ZM35.6436 32.2422V14.7734H19.5186V32.2422C19.5186 32.8021 19.6235 33.327 19.8335 33.8169C20.0435 34.3068 20.3304 34.7337 20.6943 35.0977C21.0583 35.4616 21.4852 35.7485 21.9751 35.9585C22.465 36.1685 22.9899 36.2734 23.5498 36.2734H31.6123C32.1722 36.2734 32.6971 36.1685 33.187 35.9585C33.6769 35.7485 34.1038 35.4616 34.4678 35.0977C34.8317 34.7337 35.1187 34.3068 35.3286 33.8169C35.5386 33.327 35.6436 32.8021 35.6436 32.2422ZM41.0186 26.8672V18.8047C41.0186 18.4408 40.8856 18.1258 40.6196 17.8599C40.3537 17.5939 40.0387 17.4609 39.6748 17.4609H38.3311V28.2109H39.6748C40.0387 28.2109 40.3537 28.078 40.6196 27.812C40.8856 27.5461 41.0186 27.2311 41.0186 26.8672Z" fill="#C2C2C2"/>
<path d="M30.2686 11.0781C29.9046 11.0781 29.5897 10.9451 29.3237 10.6792C29.0578 10.4132 28.9248 10.0983 28.9248 9.73438C28.9248 9.02051 29.0578 8.33464 29.3237 7.67676C29.5897 7.01888 29.9816 6.43799 30.4995 5.93408L32.1582 4.25439C32.6901 3.72249 32.9561 3.08561 32.9561 2.34375C32.9561 1.97982 33.089 1.66488 33.355 1.39893C33.6209 1.13298 33.9359 1 34.2998 1C34.6637 1 34.9787 1.13298 35.2446 1.39893C35.5106 1.66488 35.6436 1.97982 35.6436 2.34375C35.6436 3.05762 35.5106 3.74349 35.2446 4.40137C34.9787 5.05924 34.5868 5.64014 34.0688 6.14404L32.4102 7.82373C31.8783 8.35563 31.6123 8.99251 31.6123 9.73438C31.6123 10.0983 31.4793 10.4132 31.2134 10.6792C30.9474 10.9451 30.6325 11.0781 30.2686 11.0781ZM22.2061 11.0781C21.8421 11.0781 21.5272 10.9451 21.2612 10.6792C20.9953 10.4132 20.8623 10.0983 20.8623 9.73438C20.8623 9.02051 20.9953 8.33464 21.2612 7.67676C21.5272 7.01888 21.9191 6.43799 22.437 5.93408L24.0957 4.25439C24.6276 3.72249 24.8936 3.08561 24.8936 2.34375C24.8936 1.97982 25.0265 1.66488 25.2925 1.39893C25.5584 1.13298 25.8734 1 26.2373 1C26.6012 1 26.9162 1.13298 27.1821 1.39893C27.4481 1.66488 27.5811 1.97982 27.5811 2.34375C27.5811 3.05762 27.4481 3.74349 27.1821 4.40137C26.9162 5.05924 26.5243 5.64014 26.0063 6.14404L24.3477 7.82373C23.8158 8.35563 23.5498 8.99251 23.5498 9.73438C23.5498 10.0983 23.4168 10.4132 23.1509 10.6792C22.8849 10.9451 22.57 11.0781 22.2061 11.0781ZM39.6748 14.7734C40.2347 14.7734 40.7596 14.8784 41.2495 15.0884C41.7394 15.2983 42.1663 15.5853 42.5303 15.9492C42.8942 16.3132 43.1812 16.7401 43.3911 17.23C43.6011 17.7199 43.7061 18.2448 43.7061 18.8047V26.8672C43.7061 27.4271 43.6011 27.952 43.3911 28.4419C43.1812 28.9318 42.8942 29.3587 42.5303 29.7227C42.1663 30.0866 41.7394 30.3735 41.2495 30.5835C40.7596 30.7935 40.2347 30.8984 39.6748 30.8984H38.478C38.45 30.9964 38.429 31.0874 38.415 31.1714C38.401 31.2554 38.373 31.3394 38.3311 31.4233V32.2422C38.3311 33.166 38.1561 34.0339 37.8062 34.8457C37.4562 35.6576 36.9733 36.3714 36.3574 36.9873C35.7415 37.6032 35.0277 38.0861 34.2158 38.436C33.404 38.786 32.5361 38.9609 31.6123 38.9609H23.5498C22.458 38.9609 21.4502 38.716 20.5264 38.2261C19.6025 37.7362 18.8327 37.0853 18.2168 36.2734H7.71875C6.79492 36.2734 5.92708 36.0985 5.11523 35.7485C4.30339 35.3986 3.58952 34.9227 2.97363 34.3208C2.35775 33.7189 1.87484 33.005 1.5249 32.1792C1.17497 31.3534 1 30.4785 1 29.5547V28.2109H6.375C6.375 27.1051 6.58496 26.0623 7.00488 25.0825C7.4248 24.1027 8.0057 23.2489 8.74756 22.521C9.48942 21.7931 10.3433 21.2122 11.3091 20.7783C12.2749 20.3444 13.3177 20.1344 14.4375 20.1484C14.8574 20.1484 15.2633 20.1834 15.6553 20.2534C16.0472 20.3234 16.4391 20.4214 16.8311 20.5474V12.0859H38.3311V14.7734H39.6748ZM14.4375 22.8359C13.6956 22.8359 13.0028 22.9759 12.3589 23.2559C11.715 23.5358 11.1411 23.9207 10.6372 24.4106C10.1333 24.9006 9.74837 25.4674 9.48242 26.1113C9.21647 26.7552 9.0765 27.4551 9.0625 28.2109H16.8311V23.4238C16.4671 23.2419 16.0892 23.1019 15.6973 23.0039C15.3053 22.9059 14.8854 22.8499 14.4375 22.8359ZM7.71875 33.5859H16.978C16.88 33.18 16.8311 32.7321 16.8311 32.2422V30.8984H3.91846C4.05843 31.2904 4.25439 31.6473 4.50635 31.9692C4.7583 32.2912 5.04525 32.5781 5.36719 32.8301C5.68913 33.082 6.05306 33.264 6.45898 33.376C6.86491 33.488 7.28483 33.5579 7.71875 33.5859ZM17.4399 34.9927V35.0137L17.4609 35.0557V35.0347L17.4399 34.9927ZM35.6436 32.2422V14.7734H19.5186V32.2422C19.5186 32.8021 19.6235 33.327 19.8335 33.8169C20.0435 34.3068 20.3304 34.7337 20.6943 35.0977C21.0583 35.4616 21.4852 35.7485 21.9751 35.9585C22.465 36.1685 22.9899 36.2734 23.5498 36.2734H31.6123C32.1722 36.2734 32.6971 36.1685 33.187 35.9585C33.6769 35.7485 34.1038 35.4616 34.4678 35.0977C34.8317 34.7337 35.1187 34.3068 35.3286 33.8169C35.5386 33.327 35.6436 32.8021 35.6436 32.2422ZM41.0186 26.8672V18.8047C41.0186 18.4408 40.8856 18.1258 40.6196 17.8599C40.3537 17.5939 40.0387 17.4609 39.6748 17.4609H38.3311V28.2109H39.6748C40.0387 28.2109 40.3537 28.078 40.6196 27.812C40.8856 27.5461 41.0186 27.2311 41.0186 26.8672Z" stroke="#C2C2C2" mask="url(#path-1-outside-1_858_7206)"/>
</g>
</svg>
