<svg width="44" height="44" viewBox="0 0 44 44" fill="#C2C2C2" xmlns="http://www.w3.org/2000/svg">
<g id="1&#236;&#157;&#184;&#236;&#139;&#164;">
<path id="Vector" d="M20.1667 12.6833H20.0167V12.8333V27.35H5.65001V9.16663V9.01663H5.50001H2.4245H2.2745V9.16663V22.9166V36.6666V36.8166H2.4245H5.50001H5.65001V36.6666V31.0487H38.35V36.6666V36.8166H38.5H41.8449H41.9949V36.6666V20.1666C41.9949 16.0411 38.9766 12.6833 34.8333 12.6833H20.1667ZM12.8333 25.8166C15.9595 25.8166 18.4833 23.2928 18.4833 20.1666C18.4833 17.0404 15.9595 14.5166 12.8333 14.5166C9.70717 14.5166 7.18334 17.0404 7.18334 20.1666C7.18334 23.2928 9.70717 25.8166 12.8333 25.8166ZM12.8333 18.4833C13.7588 18.4833 14.5167 19.2411 14.5167 20.1666C14.5167 21.0921 13.7588 21.85 12.8333 21.85C11.9079 21.85 11.15 21.0921 11.15 20.1666C11.15 19.2411 11.9079 18.4833 12.8333 18.4833ZM38.35 27.35H23.6765V16.385H34.8333C36.7541 16.385 38.35 18.2191 38.35 20.1666V27.35Z"/>
</g>
</svg>
