<svg width="43" height="48" viewBox="0 0 43 48" stroke-width='1' xmlns="http://www.w3.org/2000/svg" fill="#C2C2C2">
<path fill-rule="evenodd" d="M26.25 1.5625C26.25 1.1481 26.4146 0.750671 26.7076 0.457646C27.0007 0.16462 27.3981 0 27.8125 0L40.3125 0C40.7269 0 41.1243 0.16462 41.4174 0.457646C41.7104 0.750671 41.875 1.1481 41.875 1.5625V17.1875C41.875 17.6019 41.7104 17.9993 41.4174 18.2924C41.1243 18.5854 40.7269 18.75 40.3125 18.75H35.625V45.3125C35.625 45.7269 35.4604 46.1243 35.1674 46.4174C34.8743 46.7104 34.4769 46.875 34.0625 46.875C33.6481 46.875 33.2507 46.7104 32.9576 46.4174C32.6646 46.1243 32.5 45.7269 32.5 45.3125V18.75H27.8125C27.3981 18.75 27.0007 18.5854 26.7076 18.2924C26.4146 17.9993 26.25 17.6019 26.25 17.1875V1.5625ZM11.6219 6.25H23.125V9.375H11.6219C10.8622 9.37483 10.1285 9.65136 9.55799 10.1529C8.98744 10.6544 8.61911 11.3466 8.52188 12.1L7.6625 18.75H23.3906C23.7139 19.6643 24.3128 20.4558 25.1047 21.0155C25.8967 21.5752 26.8427 21.8755 27.8125 21.875H5.9375C5.5231 21.875 5.12567 22.0396 4.83265 22.3326C4.53962 22.6257 4.375 23.0231 4.375 23.4375V32.8125C4.375 33.2269 4.53962 33.6243 4.83265 33.9174C5.12567 34.2104 5.5231 34.375 5.9375 34.375H29.375V37.5H10.625V41.4062C10.625 42.0279 10.3781 42.624 9.93853 43.0635C9.49899 43.5031 8.90285 43.75 8.28125 43.75C7.65965 43.75 7.06351 43.5031 6.62397 43.0635C6.18443 42.624 5.9375 42.0279 5.9375 41.4062V37.5C4.6943 37.5 3.50201 37.0061 2.62294 36.1271C1.74386 35.248 1.25 34.0557 1.25 32.8125V23.4375C1.24985 22.4489 1.56229 21.4855 2.14264 20.6851C2.72299 19.8848 3.54154 19.2884 4.48125 18.9812L4.5125 18.75H2.8125C2.3981 18.75 2.00067 18.5854 1.70765 18.2924C1.41462 17.9993 1.25 17.6019 1.25 17.1875C1.25 16.7731 1.41462 16.3757 1.70765 16.0826C2.00067 15.7896 2.3981 15.625 2.8125 15.625H4.91563L5.42188 11.7C5.61641 10.1927 6.35352 8.80789 7.49527 7.80476C8.63702 6.80163 10.1052 6.2489 11.625 6.25M28.5938 25.7844C28.8687 25.7844 29.1302 25.8292 29.3781 25.9187V30.3313C29.0247 30.4583 28.6459 30.4983 28.2738 30.4479C27.9016 30.3975 27.5471 30.2582 27.2402 30.0417C26.9334 29.8253 26.6831 29.5381 26.5108 29.2044C26.3384 28.8708 26.249 28.5005 26.25 28.125C26.25 26.8312 27.2969 25.7844 28.5906 25.7844M13.75 28.125C13.75 28.4324 13.6895 28.7367 13.5718 29.0207C13.4542 29.3047 13.2818 29.5627 13.0644 29.7801C12.8471 29.9974 12.5891 30.1698 12.3051 30.2875C12.0211 30.4051 11.7168 30.4656 11.4094 30.4656C11.102 30.4656 10.7976 30.4051 10.5137 30.2875C10.2297 30.1698 9.97165 29.9974 9.7543 29.7801C9.53696 29.5627 9.36455 29.3047 9.24692 29.0207C9.12929 28.7367 9.06875 28.4324 9.06875 28.125C9.06875 27.5042 9.31535 26.9089 9.7543 26.4699C10.1933 26.031 10.7886 25.7844 11.4094 25.7844C12.0301 25.7844 12.6255 26.031 13.0644 26.4699C13.5034 26.9089 13.75 27.5042 13.75 28.125Z"/>
</svg>
