<svg width="47" height="47" viewBox="0 0 47 47" fill="none" xmlns="http://www.w3.org/2000/svg">
<path d="M24.0464 4.97949C34.8623 4.97949 43.6297 13.747 43.6297 24.5628C43.6297 35.3787 34.8623 44.1462 24.0464 44.1462C20.6683 44.1462 17.4879 43.2904 14.712 41.7824L6.64661 44.0757C5.35509 44.4428 4.16246 43.2492 4.52965 41.9587L6.82286 33.8923C5.26863 31.0287 4.45729 27.821 4.46307 24.5628C4.46307 13.747 13.2305 4.97949 24.0464 4.97949Z" fill="#39C3C5"/>
<g clip-path="url(#clip0_990_214)">
<path fill-rule="evenodd" clip-rule="evenodd" d="M25.3171 25.7376V32.277C25.3171 32.5248 25.2186 32.7624 25.0434 32.9376C24.8682 33.1128 24.6306 33.2113 24.3828 33.2113C24.1351 33.2113 23.8975 33.1128 23.7223 32.9376C23.5471 32.7624 23.4486 32.5248 23.4486 32.277V25.7376H16.9092C16.6614 25.7376 16.4238 25.6392 16.2486 25.464C16.0734 25.2888 15.975 25.0511 15.975 24.8034C15.975 24.5556 16.0734 24.318 16.2486 24.1428C16.4238 23.9676 16.6614 23.8692 16.9092 23.8692H23.4486V17.3297C23.4486 17.0819 23.5471 16.8443 23.7223 16.6691C23.8975 16.4939 24.1351 16.3955 24.3828 16.3955C24.6306 16.3955 24.8682 16.4939 25.0434 16.6691C25.2186 16.8443 25.3171 17.0819 25.3171 17.3297V23.8692H31.8565C32.1043 23.8692 32.3419 23.9676 32.5171 24.1428C32.6923 24.318 32.7907 24.5556 32.7907 24.8034C32.7907 25.0511 32.6923 25.2888 32.5171 25.464C32.3419 25.6392 32.1043 25.7376 31.8565 25.7376H25.3171Z" fill="white"/>
</g>
<path d="M40.25 24.5C40.25 33.1775 32.9959 40.25 24 40.25C15.0041 40.25 7.75 33.1775 7.75 24.5C7.75 15.8225 15.0041 8.75 24 8.75C32.9959 8.75 40.25 15.8225 40.25 24.5Z" stroke="white" stroke-width="1.5"/>
<defs>
<clipPath id="clip0_990_214">
<rect width="17.4884" height="17.4884" fill="white" transform="translate(15.3023 16.3955)"/>
</clipPath>
</defs>
</svg>
