<svg width="37" height="38" viewBox="0 0 37 38" fill="none" xmlns="http://www.w3.org/2000/svg">
<path id="&#237;&#140;&#140;&#237;&#139;&#176;" fill-rule="evenodd" clip-rule="evenodd" d="M8.07662 1.33254C8.25943 0.849062 8.61713 0.451897 9.07886 0.219718C9.54059 -0.0124614 10.0727 -0.0627178 10.5697 0.0789041L20.4678 2.89957C20.9654 3.04152 21.3914 3.36542 21.6613 3.80698C21.9312 4.24854 22.0252 4.77546 21.9246 5.28312L19.0495 19.8648C18.661 21.833 17.5865 23.5992 16.0174 24.8489C14.4483 26.0986 12.4865 26.7504 10.4817 26.6883L8.6346 33.1682L10.6686 33.7483C11.1946 33.8981 11.6395 34.2508 11.9055 34.7287C12.1715 35.2066 12.2368 35.7707 12.087 36.2968C11.9372 36.8228 11.5846 37.2678 11.1067 37.5339C10.6288 37.7999 10.0649 37.8652 9.53893 37.7153L5.61652 36.5937C5.55154 36.5785 5.48732 36.5601 5.42412 36.5387L1.49621 35.4198C0.970238 35.2696 0.525462 34.9165 0.259731 34.4383C-0.00600016 33.9601 -0.0709193 33.396 0.0792552 32.8699C0.22943 32.3438 0.582396 31.899 1.06051 31.6332C1.53862 31.3674 2.10271 31.3025 2.62868 31.4527L4.66822 32.0355L6.51535 25.5557C4.77933 24.5513 3.45619 22.9631 2.78165 21.074C2.10711 19.185 2.12498 17.1178 2.83208 15.2407L8.07662 1.33254ZM6.65913 16.7784L15.5396 18.9989L17.5129 6.34431L11.2651 4.56284L6.65913 16.7784ZM26.7513 26.8863C24.5517 26.8862 22.4383 26.0305 20.8581 24.5C21.6129 23.2816 22.1409 21.9366 22.4166 20.5301L24.3352 10.8008L28.4006 9.83029L26.6661 4.74703L25.3962 5.06594C25.4438 3.63164 24.9289 2.23557 23.9614 1.17583L27.5017 0.287843C28.0035 0.161414 28.5345 0.228351 28.9892 0.475363C29.4439 0.722374 29.7892 1.13139 29.9563 1.6212L34.7556 15.6888C35.4026 17.5868 35.3552 19.6528 34.6219 21.5191C33.8885 23.3853 32.5167 24.9307 30.7507 25.8801L32.3889 32.4149L34.4367 31.9008C34.9671 31.7677 35.5285 31.8508 35.9976 32.1318C36.4667 32.4128 36.805 32.8687 36.938 33.3991C37.0711 33.9296 36.988 34.4911 36.7071 34.9603C36.4261 35.4295 35.9703 35.7678 35.44 35.9009L31.4736 36.8961C31.4202 36.9121 31.3661 36.9259 31.3114 36.9373L27.3286 37.938C26.7982 38.0711 26.2367 37.988 25.7676 37.707C25.2986 37.426 24.9603 36.9702 24.8272 36.4397C24.6942 35.9093 24.7773 35.3477 25.0582 34.8785C25.3392 34.4094 25.7949 34.071 26.3253 33.938L28.3896 33.4184L26.7513 26.8863Z" fill="#C2C2C2"/>
</svg>
