<svg width="43" height="48" viewBox="0 0 43 48" fill="none" xmlns="http://www.w3.org/2000/svg">
<g id="&#236;&#163;&#188;&#236;&#176;&#168; &#236;&#149;&#132;&#236;&#157;&#180;&#236;&#189;&#152;">
<mask id="path-1-outside-1_858_7225" maskUnits="userSpaceOnUse" x="0.25" y="-1" width="43" height="49" fill="black">
<rect fill="white" x="0.25" y="-1" width="43" height="49"/>
<path d="M26.25 1.5625C26.25 1.1481 26.4146 0.750671 26.7076 0.457646C27.0007 0.16462 27.3981 0 27.8125 0L40.3125 0C40.7269 0 41.1243 0.16462 41.4174 0.457646C41.7104 0.750671 41.875 1.1481 41.875 1.5625V17.1875C41.875 17.6019 41.7104 17.9993 41.4174 18.2924C41.1243 18.5854 40.7269 18.75 40.3125 18.75H35.625V45.3125C35.625 45.7269 35.4604 46.1243 35.1674 46.4174C34.8743 46.7104 34.4769 46.875 34.0625 46.875C33.6481 46.875 33.2507 46.7104 32.9576 46.4174C32.6646 46.1243 32.5 45.7269 32.5 45.3125V18.75H27.8125C27.3981 18.75 27.0007 18.5854 26.7076 18.2924C26.4146 17.9993 26.25 17.6019 26.25 17.1875V1.5625ZM11.6219 6.25H23.125V9.375H11.6219C10.8622 9.37483 10.1285 9.65136 9.55799 10.1529C8.98744 10.6544 8.61911 11.3466 8.52188 12.1L7.6625 18.75H23.3906C23.7139 19.6643 24.3128 20.4558 25.1047 21.0155C25.8967 21.5752 26.8427 21.8755 27.8125 21.875H5.9375C5.5231 21.875 5.12567 22.0396 4.83265 22.3326C4.53962 22.6257 4.375 23.0231 4.375 23.4375V32.8125C4.375 33.2269 4.53962 33.6243 4.83265 33.9174C5.12567 34.2104 5.5231 34.375 5.9375 34.375H29.375V37.5H10.625V41.4062C10.625 42.0279 10.3781 42.624 9.93853 43.0635C9.49899 43.5031 8.90285 43.75 8.28125 43.75C7.65965 43.75 7.06351 43.5031 6.62397 43.0635C6.18443 42.624 5.9375 42.0279 5.9375 41.4062V37.5C4.6943 37.5 3.50201 37.0061 2.62294 36.1271C1.74386 35.248 1.25 34.0557 1.25 32.8125V23.4375C1.24985 22.4489 1.56229 21.4855 2.14264 20.6851C2.72299 19.8848 3.54154 19.2884 4.48125 18.9812L4.5125 18.75H2.8125C2.3981 18.75 2.00067 18.5854 1.70765 18.2924C1.41462 17.9993 1.25 17.6019 1.25 17.1875C1.25 16.7731 1.41462 16.3757 1.70765 16.0826C2.00067 15.7896 2.3981 15.625 2.8125 15.625H4.91563L5.42188 11.7C5.61641 10.1927 6.35352 8.80789 7.49527 7.80476C8.63702 6.80163 10.1052 6.2489 11.625 6.25M28.5938 25.7844C28.8687 25.7844 29.1302 25.8292 29.3781 25.9187V30.3313C29.0247 30.4583 28.6459 30.4983 28.2738 30.4479C27.9016 30.3975 27.5471 30.2582 27.2402 30.0417C26.9334 29.8253 26.6831 29.5381 26.5108 29.2044C26.3384 28.8708 26.249 28.5005 26.25 28.125C26.25 26.8312 27.2969 25.7844 28.5906 25.7844M13.75 28.125C13.75 28.4324 13.6895 28.7367 13.5718 29.0207C13.4542 29.3047 13.2818 29.5627 13.0644 29.7801C12.8471 29.9974 12.5891 30.1698 12.3051 30.2875C12.0211 30.4051 11.7168 30.4656 11.4094 30.4656C11.102 30.4656 10.7976 30.4051 10.5137 30.2875C10.2297 30.1698 9.97165 29.9974 9.7543 29.7801C9.53696 29.5627 9.36455 29.3047 9.24692 29.0207C9.12929 28.7367 9.06875 28.4324 9.06875 28.125C9.06875 27.5042 9.31535 26.9089 9.7543 26.4699C10.1933 26.031 10.7886 25.7844 11.4094 25.7844C12.0301 25.7844 12.6255 26.031 13.0644 26.4699C13.5034 26.9089 13.75 27.5042 13.75 28.125Z"/>
</mask>
<path d="M26.25 1.5625C26.25 1.1481 26.4146 0.750671 26.7076 0.457646C27.0007 0.16462 27.3981 0 27.8125 0L40.3125 0C40.7269 0 41.1243 0.16462 41.4174 0.457646C41.7104 0.750671 41.875 1.1481 41.875 1.5625V17.1875C41.875 17.6019 41.7104 17.9993 41.4174 18.2924C41.1243 18.5854 40.7269 18.75 40.3125 18.75H35.625V45.3125C35.625 45.7269 35.4604 46.1243 35.1674 46.4174C34.8743 46.7104 34.4769 46.875 34.0625 46.875C33.6481 46.875 33.2507 46.7104 32.9576 46.4174C32.6646 46.1243 32.5 45.7269 32.5 45.3125V18.75H27.8125C27.3981 18.75 27.0007 18.5854 26.7076 18.2924C26.4146 17.9993 26.25 17.6019 26.25 17.1875V1.5625ZM11.6219 6.25H23.125V9.375H11.6219C10.8622 9.37483 10.1285 9.65136 9.55799 10.1529C8.98744 10.6544 8.61911 11.3466 8.52188 12.1L7.6625 18.75H23.3906C23.7139 19.6643 24.3128 20.4558 25.1047 21.0155C25.8967 21.5752 26.8427 21.8755 27.8125 21.875H5.9375C5.5231 21.875 5.12567 22.0396 4.83265 22.3326C4.53962 22.6257 4.375 23.0231 4.375 23.4375V32.8125C4.375 33.2269 4.53962 33.6243 4.83265 33.9174C5.12567 34.2104 5.5231 34.375 5.9375 34.375H29.375V37.5H10.625V41.4062C10.625 42.0279 10.3781 42.624 9.93853 43.0635C9.49899 43.5031 8.90285 43.75 8.28125 43.75C7.65965 43.75 7.06351 43.5031 6.62397 43.0635C6.18443 42.624 5.9375 42.0279 5.9375 41.4062V37.5C4.6943 37.5 3.50201 37.0061 2.62294 36.1271C1.74386 35.248 1.25 34.0557 1.25 32.8125V23.4375C1.24985 22.4489 1.56229 21.4855 2.14264 20.6851C2.72299 19.8848 3.54154 19.2884 4.48125 18.9812L4.5125 18.75H2.8125C2.3981 18.75 2.00067 18.5854 1.70765 18.2924C1.41462 17.9993 1.25 17.6019 1.25 17.1875C1.25 16.7731 1.41462 16.3757 1.70765 16.0826C2.00067 15.7896 2.3981 15.625 2.8125 15.625H4.91563L5.42188 11.7C5.61641 10.1927 6.35352 8.80789 7.49527 7.80476C8.63702 6.80163 10.1052 6.2489 11.625 6.25M28.5938 25.7844C28.8687 25.7844 29.1302 25.8292 29.3781 25.9187V30.3313C29.0247 30.4583 28.6459 30.4983 28.2738 30.4479C27.9016 30.3975 27.5471 30.2582 27.2402 30.0417C26.9334 29.8253 26.6831 29.5381 26.5108 29.2044C26.3384 28.8708 26.249 28.5005 26.25 28.125C26.25 26.8312 27.2969 25.7844 28.5906 25.7844M13.75 28.125C13.75 28.4324 13.6895 28.7367 13.5718 29.0207C13.4542 29.3047 13.2818 29.5627 13.0644 29.7801C12.8471 29.9974 12.5891 30.1698 12.3051 30.2875C12.0211 30.4051 11.7168 30.4656 11.4094 30.4656C11.102 30.4656 10.7976 30.4051 10.5137 30.2875C10.2297 30.1698 9.97165 29.9974 9.7543 29.7801C9.53696 29.5627 9.36455 29.3047 9.24692 29.0207C9.12929 28.7367 9.06875 28.4324 9.06875 28.125C9.06875 27.5042 9.31535 26.9089 9.7543 26.4699C10.1933 26.031 10.7886 25.7844 11.4094 25.7844C12.0301 25.7844 12.6255 26.031 13.0644 26.4699C13.5034 26.9089 13.75 27.5042 13.75 28.125Z" fill="#C2C2C2"/>
<path d="M27.8125 0V-0.7V0ZM35.625 18.75V18.05H34.925V18.75H35.625ZM32.5 18.75H33.2V18.05H32.5V18.75ZM23.125 6.25H23.825V5.55H23.125V6.25ZM23.125 9.375V10.075H23.825V9.375H23.125ZM11.6219 9.375L11.6217 10.075H11.6219V9.375ZM8.52188 12.1L9.2161 12.1897L9.21612 12.1896L8.52188 12.1ZM7.6625 18.75L6.96827 18.6603L6.86622 19.45H7.6625V18.75ZM23.3906 18.75L24.0506 18.5167L23.8856 18.05H23.3906V18.75ZM27.8125 21.875L27.8129 22.575L27.8125 21.175V21.875ZM29.375 34.375H30.075V33.675H29.375V34.375ZM29.375 37.5V38.2H30.075V37.5H29.375ZM10.625 37.5V36.8H9.925V37.5H10.625ZM10.625 41.4062H11.325H10.625ZM5.9375 37.5H6.6375V36.8H5.9375V37.5ZM1.25 32.8125H0.55H1.25ZM1.25 23.4375H1.95V23.4374L1.25 23.4375ZM4.48125 18.9812L4.69872 19.6466L5.11613 19.5102L5.17494 19.075L4.48125 18.9812ZM4.5125 18.75L5.20619 18.8437L5.31346 18.05H4.5125V18.75ZM4.91563 15.625V16.325H5.53114L5.60987 15.7145L4.91563 15.625ZM5.42188 11.7L4.72763 11.6104L4.72763 11.6105L5.42188 11.7ZM29.3781 25.9187H30.0781V25.4274L29.616 25.2604L29.3781 25.9187ZM29.3781 30.3313L29.6149 30.99L30.0781 30.8235V30.3313H29.3781ZM26.25 28.125L26.95 28.127V28.125H26.25ZM13.75 28.125H14.45H13.75ZM9.06875 28.125H8.36875H9.06875ZM26.95 1.5625C26.95 1.33375 27.0409 1.11437 27.2026 0.95262L26.2127 -0.0373291C25.7884 0.386973 25.55 0.962449 25.55 1.5625H26.95ZM27.2026 0.95262C27.3644 0.790871 27.5837 0.7 27.8125 0.7V-0.7C27.2124 -0.7 26.637 -0.46163 26.2127 -0.0373291L27.2026 0.95262ZM27.8125 0.7H40.3125V-0.7H27.8125V0.7ZM40.3125 0.7C40.5412 0.7 40.7606 0.790871 40.9224 0.95262L41.9123 -0.0373291C41.488 -0.46163 40.9126 -0.7 40.3125 -0.7V0.7ZM40.9224 0.95262C41.0841 1.11437 41.175 1.33375 41.175 1.5625H42.575C42.575 0.962449 42.3366 0.386973 41.9123 -0.0373291L40.9224 0.95262ZM41.175 1.5625V17.1875H42.575V1.5625H41.175ZM41.175 17.1875C41.175 17.4163 41.0841 17.6356 40.9224 17.7974L41.9123 18.7873C42.3366 18.363 42.575 17.7876 42.575 17.1875H41.175ZM40.9224 17.7974C40.7606 17.9591 40.5412 18.05 40.3125 18.05V19.45C40.9126 19.45 41.488 19.2116 41.9123 18.7873L40.9224 17.7974ZM40.3125 18.05H35.625V19.45H40.3125V18.05ZM34.925 18.75V45.3125H36.325V18.75H34.925ZM34.925 45.3125C34.925 45.5413 34.8341 45.7606 34.6724 45.9224L35.6623 46.9123C36.0866 46.488 36.325 45.9126 36.325 45.3125H34.925ZM34.6724 45.9224C34.5106 46.0841 34.2913 46.175 34.0625 46.175V47.575C34.6626 47.575 35.238 47.3366 35.6623 46.9123L34.6724 45.9224ZM34.0625 46.175C33.8337 46.175 33.6144 46.0841 33.4526 45.9224L32.4627 46.9123C32.887 47.3366 33.4624 47.575 34.0625 47.575V46.175ZM33.4526 45.9224C33.2909 45.7606 33.2 45.5413 33.2 45.3125H31.8C31.8 45.9126 32.0384 46.488 32.4627 46.9123L33.4526 45.9224ZM33.2 45.3125V18.75H31.8V45.3125H33.2ZM32.5 18.05H27.8125V19.45H32.5V18.05ZM27.8125 18.05C27.5837 18.05 27.3644 17.9591 27.2026 17.7974L26.2127 18.7873C26.637 19.2116 27.2124 19.45 27.8125 19.45V18.05ZM27.2026 17.7974C27.0409 17.6356 26.95 17.4163 26.95 17.1875H25.55C25.55 17.7876 25.7884 18.363 26.2127 18.7873L27.2026 17.7974ZM26.95 17.1875V1.5625H25.55V17.1875H26.95ZM11.6219 6.95H23.125V5.55H11.6219V6.95ZM22.425 6.25V9.375H23.825V6.25H22.425ZM23.125 8.675H11.6219V10.075H23.125V8.675ZM11.622 8.675C10.6922 8.67479 9.79419 9.01327 9.09583 9.62714L10.0201 10.6786C10.4629 10.2895 11.0322 10.0749 11.6217 10.075L11.622 8.675ZM9.09583 9.62714C8.39748 10.241 7.94665 11.0882 7.82763 12.0104L9.21612 12.1896C9.29157 11.605 9.5774 11.0678 10.0201 10.6786L9.09583 9.62714ZM7.82765 12.0103L6.96827 18.6603L8.35673 18.8397L9.2161 12.1897L7.82765 12.0103ZM7.6625 19.45H23.3906V18.05H7.6625V19.45ZM22.7307 18.9833C23.1022 20.0342 23.7905 20.9439 24.7007 21.5872L25.5087 20.4439C24.835 19.9678 24.3256 19.2944 24.0506 18.5167L22.7307 18.9833ZM24.7007 21.5872C25.6109 22.2305 26.6983 22.5756 27.8129 22.575L27.8121 21.175C26.9872 21.1754 26.1824 20.92 25.5087 20.4439L24.7007 21.5872ZM27.8125 21.175H5.9375V22.575H27.8125V21.175ZM5.9375 21.175C5.33745 21.175 4.76197 21.4134 4.33767 21.8377L5.32762 22.8276C5.48937 22.6659 5.70875 22.575 5.9375 22.575V21.175ZM4.33767 21.8377C3.91337 22.262 3.675 22.8374 3.675 23.4375H5.075C5.075 23.2088 5.16587 22.9894 5.32762 22.8276L4.33767 21.8377ZM3.675 23.4375V32.8125H5.075V23.4375H3.675ZM3.675 32.8125C3.675 33.4126 3.91337 33.988 4.33767 34.4123L5.32762 33.4224C5.16587 33.2606 5.075 33.0412 5.075 32.8125H3.675ZM4.33767 34.4123C4.76197 34.8366 5.33745 35.075 5.9375 35.075V33.675C5.70875 33.675 5.48937 33.5841 5.32762 33.4224L4.33767 34.4123ZM5.9375 35.075H29.375V33.675H5.9375V35.075ZM28.675 34.375V37.5H30.075V34.375H28.675ZM29.375 36.8H10.625V38.2H29.375V36.8ZM9.925 37.5V41.4062H11.325V37.5H9.925ZM9.925 41.4062C9.925 41.8422 9.75182 42.2603 9.44356 42.5686L10.4335 43.5585C11.0043 42.9877 11.325 42.2135 11.325 41.4062H9.925ZM9.44356 42.5686C9.13529 42.8768 8.7172 43.05 8.28125 43.05V44.45C9.0885 44.45 9.86269 44.1293 10.4335 43.5585L9.44356 42.5686ZM8.28125 43.05C7.8453 43.05 7.42721 42.8768 7.11894 42.5686L6.12899 43.5585C6.69981 44.1293 7.474 44.45 8.28125 44.45V43.05ZM7.11894 42.5686C6.81068 42.2603 6.6375 41.8422 6.6375 41.4062H5.2375C5.2375 42.2135 5.55818 42.9877 6.12899 43.5585L7.11894 42.5686ZM6.6375 41.4062V37.5H5.2375V41.4062H6.6375ZM5.9375 36.8C4.87995 36.8 3.86571 36.3799 3.11791 35.6321L2.12796 36.622C3.13831 37.6324 4.50865 38.2 5.9375 38.2V36.8ZM3.11791 35.6321C2.37011 34.8843 1.95 33.8701 1.95 32.8125H0.55C0.55 34.2414 1.11761 35.6117 2.12796 36.622L3.11791 35.6321ZM1.95 32.8125V23.4375H0.55V32.8125H1.95ZM1.95 23.4374C1.94988 22.5964 2.21566 21.7769 2.70934 21.0961L1.57594 20.2742C0.908926 21.1941 0.549832 22.3013 0.55 23.4376L1.95 23.4374ZM2.70934 21.0961C3.20302 20.4152 3.89933 19.9079 4.69872 19.6466L4.26378 18.3159C3.18374 18.6689 2.24296 19.3543 1.57594 20.2742L2.70934 21.0961ZM5.17494 19.075L5.20619 18.8437L3.8188 18.6563L3.78755 18.8875L5.17494 19.075ZM4.5125 18.05H2.8125V19.45H4.5125V18.05ZM2.8125 18.05C2.58375 18.05 2.36437 17.9591 2.20262 17.7974L1.21267 18.7873C1.63697 19.2116 2.21245 19.45 2.8125 19.45V18.05ZM2.20262 17.7974C2.04087 17.6356 1.95 17.4162 1.95 17.1875H0.55C0.55 17.7876 0.788371 18.363 1.21267 18.7873L2.20262 17.7974ZM1.95 17.1875C1.95 16.9588 2.04087 16.7394 2.20262 16.5776L1.21267 15.5877C0.788371 16.012 0.55 16.5874 0.55 17.1875H1.95ZM2.20262 16.5776C2.36437 16.4159 2.58375 16.325 2.8125 16.325V14.925C2.21245 14.925 1.63697 15.1634 1.21267 15.5877L2.20262 16.5776ZM2.8125 16.325H4.91563V14.925H2.8125V16.325ZM5.60987 15.7145L6.11612 11.7895L4.72763 11.6105L4.22138 15.5355L5.60987 15.7145ZM6.11612 11.7896C6.28887 10.4511 6.94342 9.2214 7.95729 8.33062L7.03325 7.27889C5.76362 8.39437 4.94396 9.93426 4.72763 11.6104L6.11612 11.7896ZM7.95729 8.33062C8.97117 7.43984 10.2749 6.94902 11.6245 6.95L11.6255 5.55C9.93546 5.54877 8.30288 6.16341 7.03325 7.27889L7.95729 8.33062ZM28.5938 26.4844C28.7912 26.4844 28.9719 26.5163 29.1402 26.5771L29.616 25.2604C29.2885 25.1421 28.9463 25.0844 28.5938 25.0844V26.4844ZM28.6781 25.9187V30.3313H30.0781V25.9187H28.6781ZM29.1414 29.6725C28.8938 29.7615 28.6284 29.7895 28.3677 29.7542L28.1798 31.1415C28.6634 31.207 29.1557 31.1551 29.6149 30.99L29.1414 29.6725ZM28.3677 29.7542C28.107 29.7189 27.8587 29.6213 27.6437 29.4697L26.8368 30.6137C27.2356 30.895 27.6963 31.0761 28.1798 31.1415L28.3677 29.7542ZM27.6437 29.4697C27.4287 29.3181 27.2534 29.1169 27.1327 28.8831L25.8889 29.5257C26.1129 29.9593 26.438 30.3325 26.8368 30.6137L27.6437 29.4697ZM27.1327 28.8831C27.0119 28.6494 26.9493 28.39 26.95 28.127L25.55 28.123C25.5486 28.611 25.6649 29.0922 25.8889 29.5257L27.1327 28.8831ZM26.95 28.125C26.95 27.2178 27.6835 26.4844 28.5906 26.4844V25.0844C26.9103 25.0844 25.55 26.4447 25.55 28.125H26.95ZM13.05 28.125C13.05 28.3405 13.0076 28.5538 12.9251 28.7528L14.2185 29.2886C14.3714 28.9197 14.45 28.5243 14.45 28.125H13.05ZM12.9251 28.7528C12.8427 28.9519 12.7218 29.1328 12.5695 29.2851L13.5594 30.275C13.8418 29.9927 14.0657 29.6575 14.2185 29.2886L12.9251 28.7528ZM12.5695 29.2851C12.4171 29.4374 12.2363 29.5583 12.0372 29.6407L12.573 30.9342C12.9419 30.7814 13.2771 30.5574 13.5594 30.275L12.5695 29.2851ZM12.0372 29.6407C11.8382 29.7232 11.6248 29.7656 11.4094 29.7656V31.1656C11.8087 31.1656 12.2041 31.087 12.573 30.9342L12.0372 29.6407ZM11.4094 29.7656C11.1939 29.7656 10.9806 29.7232 10.7815 29.6407L10.2458 30.9342C10.6147 31.087 11.0101 31.1656 11.4094 31.1656V29.7656ZM10.7815 29.6407C10.5825 29.5583 10.4016 29.4374 10.2493 29.2851L9.25933 30.275C9.54168 30.5574 9.87687 30.7814 10.2458 30.9342L10.7815 29.6407ZM10.2493 29.2851C10.0969 29.1328 9.97608 28.9519 9.89364 28.7528L8.6002 29.2886C8.75301 29.6575 8.97698 29.9927 9.25933 30.275L10.2493 29.2851ZM9.89364 28.7528C9.81119 28.5538 9.76875 28.3404 9.76875 28.125H8.36875C8.36875 28.5243 8.4474 28.9197 8.6002 29.2886L9.89364 28.7528ZM9.76875 28.125C9.76875 27.6899 9.9416 27.2726 10.2493 26.9649L9.25933 25.975C8.6891 26.5452 8.36875 27.3186 8.36875 28.125H9.76875ZM10.2493 26.9649C10.557 26.6572 10.9743 26.4844 11.4094 26.4844V25.0844C10.603 25.0844 9.82956 25.4047 9.25933 25.975L10.2493 26.9649ZM11.4094 26.4844C11.8445 26.4844 12.2618 26.6572 12.5695 26.9649L13.5594 25.975C12.9892 25.4047 12.2158 25.0844 11.4094 25.0844V26.4844ZM12.5695 26.9649C12.8771 27.2726 13.05 27.6899 13.05 28.125H14.45C14.45 27.3186 14.1296 26.5452 13.5594 25.975L12.5695 26.9649Z" fill="#C2C2C2" mask="url(#path-1-outside-1_858_7225)"/>
</g>
</svg>
