<svg width="48" height="48" viewBox="0 0 48 48" fill="none" xmlns="http://www.w3.org/2000/svg" stroke="#C2C2C2" stroke-width="4" >
<g id="&#236;&#136;&#152;&#236;&#152;&#129;&#236;&#158;&#165;">
<path id="Vector" d="M36 27V8C36 5.79 37.79 4 40 4H44M10 27V8C10 5.79 11.79 4 14 4H18M10 12H36M10 20H36M4 34L6.5 35.351C8.1 36.216 9.9 36.216 11.5 35.351C13.1 34.487 14.9 34.487 16.5 35.351C18.1 36.216 19.9 36.216 21.5 35.351C23.1 34.487 24.9 34.487 26.5 35.351C28.1 36.216 29.9 36.216 31.5 35.351C33.1 34.487 34.9 34.487 36.5 35.351C38.1 36.216 39.9 36.216 41.5 35.351L44 34M4 40L6.5 41.351C8.1 42.216 9.9 42.216 11.5 41.351C13.1 40.487 14.9 40.487 16.5 41.351C18.1 42.216 19.9 42.216 21.5 41.351C23.1 40.487 24.9 40.487 26.5 41.351C28.1 42.216 29.9 42.216 31.5 41.351C33.1 40.487 34.9 40.487 36.5 41.351C38.1 42.216 39.9 42.216 41.5 41.351L44 40" stroke-miterlimit="2" stroke-linecap="round" stroke-linejoin="round"/>
</g>
</svg>
