<svg width="19" height="19" viewBox="0 0 19 19" fill="none" xmlns="http://www.w3.org/2000/svg">
<rect x="0.5" y="0.5" width="18" height="18" rx="2.5" stroke="#D9D9D9"/>
<g clip-path="url(#clip0_858_7246)">
<path d="M16.0626 5.39346C16.1735 5.26924 16.3251 5.19753 16.4846 5.19399C16.6441 5.19044 16.7983 5.25534 16.9138 5.37452C16.9709 5.4335 17.0167 5.50412 17.0486 5.58232C17.0804 5.66053 17.0977 5.74479 17.0994 5.83025C17.1011 5.91571 17.0872 6.00069 17.0584 6.08031C17.0297 6.15993 16.9868 6.23261 16.932 6.29419L8.57812 15.6967C8.52226 15.7594 8.45537 15.8095 8.38139 15.8439C8.30742 15.8783 8.22784 15.8963 8.14734 15.897C8.06684 15.8976 7.98704 15.8807 7.91262 15.8475C7.83821 15.8142 7.77068 15.7652 7.714 15.7032L2.07328 9.52577C2.01777 9.46505 1.97388 9.39305 1.94413 9.31391C1.91438 9.23476 1.89935 9.15003 1.89992 9.06457C1.90048 8.97911 1.91663 8.89462 1.94742 8.81594C1.97822 8.73727 2.02305 8.66596 2.07936 8.60611C2.1934 8.4848 2.34716 8.41739 2.50698 8.41863C2.6668 8.41986 2.81965 8.48964 2.93208 8.61269L8.13732 14.3135L16.0626 5.39346Z" fill="#D9D9D9"/>
</g>
<defs>
<clipPath id="clip0_858_7246">
<rect width="15.2" height="16.4667" fill="white" transform="translate(1.89999 1.90002)"/>
</clipPath>
</defs>
</svg>
