<svg width="25" height="15" viewBox="0 0 5 3" fill="none" xmlns="http://www.w3.org/2000/svg">
<path fill-rule="evenodd" clip-rule="evenodd" d="M0.484571 0.428684C0.321735 0.588354 0.223068 0.806507 0.223068 1.03426C0.223068 1.54482 0.665268 1.97339 1.13217 2.28184C1.36334 2.43455 1.59505 2.55411 1.76921 2.63553C1.85616 2.67618 1.92847 2.70718 1.97876 2.72792C1.98879 2.73206 1.99793 2.73578 2.00614 2.73909C2.01456 2.73551 2.02397 2.73147 2.03431 2.72698C2.08472 2.70507 2.15715 2.67246 2.24426 2.63C2.41869 2.54498 2.65077 2.42108 2.88231 2.26534C3.3509 1.9502 3.79216 1.5217 3.79216 1.03426C3.79216 0.806542 3.69351 0.588389 3.53068 0.42871C3.36839 0.269555 3.14676 0.171883 2.89641 0.171883C2.55034 0.171883 2.28192 0.345553 2.10773 0.618932L2.00762 0.776058L1.9075 0.618932C1.7333 0.345536 1.46488 0.171883 1.11882 0.171883C0.868495 0.171883 0.646865 0.269538 0.484571 0.428684ZM2.00762 2.83606C1.95923 2.9135 1.95915 2.91347 1.95915 2.91347L1.95738 2.9128L1.95282 2.91108C1.94889 2.90959 1.94323 2.90741 1.93593 2.90457C1.92133 2.89887 1.90022 2.89048 1.87352 2.87947C1.82013 2.85745 1.74429 2.82492 1.65349 2.78248C1.47214 2.69769 1.22983 2.57276 0.986977 2.41233C0.505841 2.09448 0 1.62216 0 1.03426C0 0.769965 0.113902 0.513963 0.309175 0.322486C0.504982 0.130479 0.786996 0 1.11882 0C1.50959 0 1.80675 0.168735 2.00762 0.406829C2.20847 0.168746 2.50563 0 2.89641 0C3.22827 0 3.51028 0.130502 3.70608 0.322512C3.90134 0.514006 4.01523 0.770008 4.01523 1.03426C4.01523 1.59997 3.50845 2.07238 3.029 2.39484C2.78653 2.55791 2.54459 2.687 2.3635 2.77526C2.27284 2.81945 2.19715 2.85355 2.14388 2.8767C2.11723 2.88827 2.09617 2.89712 2.08163 2.90313C2.07437 2.90614 2.06873 2.90843 2.06482 2.91001L2.0603 2.91182L2.05904 2.91232C2.05904 2.91232 2.05848 2.91255 2.00762 2.83606ZM2.00762 2.83606L2.05904 2.91232L2.00917 2.93202L1.95915 2.91347L2.00762 2.83606Z" fill="white"/>
<path d="M0.484571 0.428684C0.321735 0.588354 0.223068 0.806507 0.223068 1.03426C0.223068 1.54482 0.665268 1.97339 1.13217 2.28184C1.36334 2.43455 1.59505 2.55411 1.76921 2.63553C1.85616 2.67618 1.92847 2.70718 1.97876 2.72792L2.00614 2.73909L2.03431 2.72698C2.08472 2.70507 2.15715 2.67246 2.24426 2.63C2.41869 2.54498 2.65077 2.42108 2.88231 2.26534C3.3509 1.9502 3.79216 1.5217 3.79216 1.03426C3.79216 0.806542 3.69351 0.588389 3.53068 0.42871C3.36839 0.269555 3.14676 0.171883 2.89641 0.171883C2.55034 0.171883 2.28192 0.345553 2.10773 0.618932L2.00762 0.776058L1.9075 0.618932C1.7333 0.345536 1.46488 0.171883 1.11882 0.171883C0.868495 0.171883 0.646865 0.269538 0.484571 0.428684Z" fill="#FF0000"/>
</svg>
