<svg width="46" height="44" viewBox="0 0 46 44" fill="none" xmlns="http://www.w3.org/2000/svg">
<path d="M22.9762 40.5721C22.4704 40.5759 21.9621 40.5457 21.4551 40.4991C20.6549 40.4262 19.8635 40.2991 19.0834 40.1116C17.7246 39.787 16.4262 39.2988 15.1982 38.6295C13.8432 37.891 12.624 36.9788 11.5558 35.8628C10.7569 35.0274 10.0687 34.1114 9.50751 33.1011C8.47958 31.2528 7.96499 29.27 7.94234 27.1575C7.93983 26.9864 7.96122 26.8165 7.96373 26.6467C7.9738 25.9522 8.07445 25.2677 8.22166 24.5921C8.53872 23.1326 9.10867 21.7725 9.91767 20.5156C10.5782 19.4877 11.3621 18.5642 12.2692 17.7451C12.8404 17.2293 13.4468 16.7587 14.0885 16.3372C14.9642 15.7623 15.8927 15.2854 16.8653 14.8954C17.0263 14.8312 17.3421 14.2663 17.3421 14.2663C17.3698 14.0423 17.3673 14.0008 17.3811 13.758C17.4252 12.988 17.7775 12.4558 18.3701 11.9991C19.4018 11.2039 20.8625 11.2001 21.9848 11.8531C22.3106 12.0431 22.6415 12.1362 22.9724 12.1412V40.5734L22.9762 40.5721Z" fill="#FFCB6E"/>
<path d="M11.4237 22.5715C11.8402 22.5715 12.1636 22.8949 12.1674 23.3165C12.1712 23.7003 11.8239 24.0463 11.4338 24.0488C11.016 24.0513 10.6914 23.7154 10.6863 23.2888C10.6813 22.9138 11.05 22.5413 11.4237 22.5715Z" fill="#FE9833"/>
<path d="M18.5979 17.5957C18.2154 17.6423 17.8631 17.2522 17.8618 16.8709C17.8606 16.4859 18.2368 16.131 18.5979 16.1348C18.9704 16.1386 19.3341 16.4909 19.3341 16.8722C19.3341 17.2232 19.0031 17.6448 18.5967 17.597L18.5979 17.5957Z" fill="#FE9833"/>
<path d="M14.2331 25.4956C14.6685 25.4956 14.9755 25.7875 14.9755 26.2053C14.9755 26.6407 14.6748 26.9465 14.2432 26.9465C13.8154 26.9465 13.5234 26.6507 13.5234 26.2166C13.5234 25.785 13.8066 25.4969 14.2331 25.4956Z" fill="#FE9833"/>
<path d="M22.9485 40.5723C21.9457 40.5622 20.948 40.4767 19.9565 40.2942C18.365 40.0023 16.8501 39.4915 15.4145 38.7467C14.4219 38.2321 13.4984 37.6106 12.6441 36.8884C11.6363 36.0366 10.7631 35.0665 10.0321 33.9682C9.21806 32.7452 8.63553 31.4191 8.28702 29.9911C8.14107 29.3922 8.05048 28.7845 7.99386 28.1693C7.93599 27.5427 7.92592 26.9161 7.97625 26.2895C8.09703 24.7609 8.47826 23.3001 9.14257 21.9149C9.72385 20.7008 10.4787 19.6074 11.3909 18.6185C12.4428 17.4786 13.6544 16.5463 15.0019 15.7863C15.5404 15.4819 16.094 15.2076 16.6702 14.9811C17.0099 14.8465 17.2515 14.6251 17.3446 14.2665C17.3874 14.1017 17.3647 13.928 17.3836 13.7582C17.4377 13.2901 17.6151 12.8775 17.9045 12.5126C18.375 11.9187 18.9991 11.5765 19.7389 11.4519C20.4976 11.3236 21.2135 11.4557 21.8866 11.8395C22.2464 12.0445 22.6113 12.1465 22.9761 12.1414V5.88581C22.2036 4.1143 20.919 2.84229 19.1513 2.04335C18.9286 1.9427 18.7084 1.9578 18.5071 2.09871C18.0932 2.38935 18.1762 2.98195 18.6619 3.20465C20.227 3.9218 21.3267 5.07429 21.9432 6.68474C22.293 7.59692 22.4641 8.54809 22.5433 9.51814C22.5773 9.93208 22.5949 10.3473 22.5861 10.7675C22.5131 10.7637 22.4691 10.7197 22.4175 10.692C20.7278 9.76349 18.6455 10.0264 17.254 11.3588C16.5947 11.9892 16.2135 12.7667 16.1279 13.6789C16.1153 13.8098 16.0675 13.8676 15.953 13.9167C13.6946 14.8918 11.7269 16.2758 10.1239 18.1467C7.83156 20.8228 6.63881 23.9103 6.69921 27.4559C6.72185 28.7505 6.93323 30.0137 7.33332 31.243C8.20524 33.9304 9.76411 36.1574 11.9407 37.9402C15.1742 40.5874 18.8821 41.8116 22.9774 41.8204V40.5735C22.9686 40.5735 22.9585 40.5735 22.9497 40.5735L22.9485 40.5723Z" fill="#FE9833"/>
<path d="M22.5219 38.6498C22.4905 38.9644 22.7207 39.2198 22.9762 39.3268V37.959C22.6868 38.0735 22.4942 38.3516 22.5219 38.6498Z" fill="#FE9833"/>
</svg>
