<svg width="29" height="27" viewBox="0 0 29 27" fill="none" xmlns="http://www.w3.org/2000/svg">
<path d="M24.4688 11.8124V21.9374C24.4688 22.385 24.2778 22.8142 23.9379 23.1307C23.598 23.4471 23.137 23.6249 22.6562 23.6249H6.34375C5.86305 23.6249 5.40203 23.4471 5.06212 23.1307C4.72221 22.8142 4.53125 22.385 4.53125 21.9374V11.8124C4.53125 11.3649 4.72221 10.9357 5.06212 10.6192C5.40203 10.3027 5.86305 10.1249 6.34375 10.1249H9.0625C9.30285 10.1249 9.53336 10.2138 9.70332 10.3721C9.87327 10.5303 9.96875 10.7449 9.96875 10.9687C9.96875 11.1925 9.87327 11.4071 9.70332 11.5653C9.53336 11.7235 9.30285 11.8124 9.0625 11.8124H6.34375V21.9374H22.6562V11.8124H19.9375C19.6971 11.8124 19.4666 11.7235 19.2967 11.5653C19.1267 11.4071 19.0312 11.1925 19.0312 10.9687C19.0312 10.7449 19.1267 10.5303 19.2967 10.3721C19.4666 10.2138 19.6971 10.1249 19.9375 10.1249H22.6562C23.137 10.1249 23.598 10.3027 23.9379 10.6192C24.2778 10.9357 24.4688 11.3649 24.4688 11.8124ZM10.6099 7.34688L13.5938 4.56778V14.3437C13.5938 14.5675 13.6892 14.7821 13.8592 14.9403C14.0291 15.0985 14.2596 15.1874 14.5 15.1874C14.7404 15.1874 14.9709 15.0985 15.1408 14.9403C15.3108 14.7821 15.4062 14.5675 15.4062 14.3437V4.56778L18.3901 7.34688C18.5601 7.50521 18.7908 7.59415 19.0312 7.59415C19.2717 7.59415 19.5024 7.50521 19.6724 7.34688C19.8425 7.18856 19.938 6.97383 19.938 6.74993C19.938 6.52603 19.8425 6.3113 19.6724 6.15298L15.1412 1.93423C15.057 1.85578 14.9571 1.79355 14.847 1.75108C14.737 1.70862 14.6191 1.68677 14.5 1.68677C14.3809 1.68677 14.263 1.70862 14.153 1.75108C14.0429 1.79355 13.943 1.85578 13.8588 1.93423L9.32758 6.15298C9.15753 6.3113 9.062 6.52603 9.062 6.74993C9.062 6.97383 9.15753 7.18856 9.32758 7.34688C9.49763 7.50521 9.72826 7.59415 9.96875 7.59415C10.2092 7.59415 10.4399 7.50521 10.6099 7.34688Z" fill="white"/>
</svg>
